<mxfile host="app.diagrams.net" modified="2023-12-28T19:34:03.312Z" agent="Mozilla/5.0 (Windows NT 10.0; Win64; x64) AppleWebKit/537.36 (KHTML, like Gecko) Chrome/120.0.0.0 Safari/537.36" etag="2uvnhwxrK4ehp816jIrG" version="22.1.15" type="github">
  <diagram name="Page-1" id="sc9e09U0qm37p7jLNKrA">
    <mxGraphModel dx="1434" dy="760" grid="1" gridSize="10" guides="1" tooltips="1" connect="1" arrows="1" fold="1" page="1" pageScale="1" pageWidth="850" pageHeight="1100" math="0" shadow="0">
      <root>
        <mxCell id="0" />
        <mxCell id="1" parent="0" />
        <mxCell id="BZd78uIDV3-QRAubpIWx-1" value="Method and Route" style="rounded=0;whiteSpace=wrap;html=1;fillColor=#e1d5e7;strokeColor=#9673a6;fontStyle=1" vertex="1" parent="1">
          <mxGeometry x="40" y="40" width="160" height="40" as="geometry" />
        </mxCell>
        <mxCell id="BZd78uIDV3-QRAubpIWx-5" value="Description" style="rounded=0;whiteSpace=wrap;html=1;fillColor=#e1d5e7;strokeColor=#9673a6;fontStyle=1" vertex="1" parent="1">
          <mxGeometry x="380" y="40" width="160" height="40" as="geometry" />
        </mxCell>
        <mxCell id="BZd78uIDV3-QRAubpIWx-6" value="Body or Query String" style="rounded=0;whiteSpace=wrap;html=1;fillColor=#e1d5e7;strokeColor=#9673a6;fontStyle=1" vertex="1" parent="1">
          <mxGeometry x="210" y="40" width="160" height="40" as="geometry" />
        </mxCell>
        <mxCell id="BZd78uIDV3-QRAubpIWx-8" value="POST /auth/signup" style="rounded=0;whiteSpace=wrap;html=1;" vertex="1" parent="1">
          <mxGeometry x="40" y="90" width="160" height="40" as="geometry" />
        </mxCell>
        <mxCell id="BZd78uIDV3-QRAubpIWx-9" value="POST /auth/signup" style="rounded=0;whiteSpace=wrap;html=1;" vertex="1" parent="1">
          <mxGeometry x="210" y="90" width="160" height="40" as="geometry" />
        </mxCell>
        <mxCell id="BZd78uIDV3-QRAubpIWx-10" value="POST /auth/signup" style="rounded=0;whiteSpace=wrap;html=1;" vertex="1" parent="1">
          <mxGeometry x="380" y="90" width="160" height="40" as="geometry" />
        </mxCell>
        <mxCell id="BZd78uIDV3-QRAubpIWx-11" value="POST /auth/signup" style="rounded=0;whiteSpace=wrap;html=1;" vertex="1" parent="1">
          <mxGeometry x="380" y="140" width="160" height="40" as="geometry" />
        </mxCell>
        <mxCell id="BZd78uIDV3-QRAubpIWx-12" value="POST /auth/signup" style="rounded=0;whiteSpace=wrap;html=1;" vertex="1" parent="1">
          <mxGeometry x="210" y="140" width="160" height="40" as="geometry" />
        </mxCell>
        <mxCell id="BZd78uIDV3-QRAubpIWx-13" value="POST /auth/signup" style="rounded=0;whiteSpace=wrap;html=1;" vertex="1" parent="1">
          <mxGeometry x="40" y="140" width="160" height="40" as="geometry" />
        </mxCell>
        <mxCell id="BZd78uIDV3-QRAubpIWx-14" value="POST /auth/signup" style="rounded=0;whiteSpace=wrap;html=1;" vertex="1" parent="1">
          <mxGeometry x="40" y="240" width="160" height="40" as="geometry" />
        </mxCell>
        <mxCell id="BZd78uIDV3-QRAubpIWx-15" value="POST /auth/signup" style="rounded=0;whiteSpace=wrap;html=1;" vertex="1" parent="1">
          <mxGeometry x="40" y="190" width="160" height="40" as="geometry" />
        </mxCell>
        <mxCell id="BZd78uIDV3-QRAubpIWx-16" value="POST /auth/signup" style="rounded=0;whiteSpace=wrap;html=1;" vertex="1" parent="1">
          <mxGeometry x="210" y="190" width="160" height="40" as="geometry" />
        </mxCell>
        <mxCell id="BZd78uIDV3-QRAubpIWx-17" value="POST /auth/signup" style="rounded=0;whiteSpace=wrap;html=1;" vertex="1" parent="1">
          <mxGeometry x="210" y="240" width="160" height="40" as="geometry" />
        </mxCell>
        <mxCell id="BZd78uIDV3-QRAubpIWx-18" value="POST /auth/signup" style="rounded=0;whiteSpace=wrap;html=1;" vertex="1" parent="1">
          <mxGeometry x="380" y="240" width="160" height="40" as="geometry" />
        </mxCell>
        <mxCell id="BZd78uIDV3-QRAubpIWx-19" value="POST /auth/signup" style="rounded=0;whiteSpace=wrap;html=1;" vertex="1" parent="1">
          <mxGeometry x="380" y="190" width="160" height="40" as="geometry" />
        </mxCell>
        <mxCell id="BZd78uIDV3-QRAubpIWx-20" value="POST /auth/signup" style="rounded=0;whiteSpace=wrap;html=1;" vertex="1" parent="1">
          <mxGeometry x="40" y="340" width="160" height="40" as="geometry" />
        </mxCell>
        <mxCell id="BZd78uIDV3-QRAubpIWx-21" value="POST /auth/signup" style="rounded=0;whiteSpace=wrap;html=1;" vertex="1" parent="1">
          <mxGeometry x="40" y="290" width="160" height="40" as="geometry" />
        </mxCell>
        <mxCell id="BZd78uIDV3-QRAubpIWx-22" value="POST /auth/signup" style="rounded=0;whiteSpace=wrap;html=1;" vertex="1" parent="1">
          <mxGeometry x="210" y="290" width="160" height="40" as="geometry" />
        </mxCell>
        <mxCell id="BZd78uIDV3-QRAubpIWx-23" value="POST /auth/signup" style="rounded=0;whiteSpace=wrap;html=1;" vertex="1" parent="1">
          <mxGeometry x="210" y="340" width="160" height="40" as="geometry" />
        </mxCell>
        <mxCell id="BZd78uIDV3-QRAubpIWx-24" value="POST /auth/signup" style="rounded=0;whiteSpace=wrap;html=1;" vertex="1" parent="1">
          <mxGeometry x="380" y="340" width="160" height="40" as="geometry" />
        </mxCell>
        <mxCell id="BZd78uIDV3-QRAubpIWx-25" value="POST /auth/signup" style="rounded=0;whiteSpace=wrap;html=1;" vertex="1" parent="1">
          <mxGeometry x="380" y="290" width="160" height="40" as="geometry" />
        </mxCell>
        <mxCell id="BZd78uIDV3-QRAubpIWx-26" value="Controller" style="rounded=0;whiteSpace=wrap;html=1;fillColor=#e1d5e7;strokeColor=#9673a6;fontStyle=1" vertex="1" parent="1">
          <mxGeometry x="620" y="160" width="160" height="40" as="geometry" />
        </mxCell>
        <mxCell id="BZd78uIDV3-QRAubpIWx-29" value="POST /auth/signup" style="rounded=0;whiteSpace=wrap;html=1;" vertex="1" parent="1">
          <mxGeometry x="620" y="215" width="160" height="40" as="geometry" />
        </mxCell>
        <mxCell id="BZd78uIDV3-QRAubpIWx-38" value="" style="shape=curlyBracket;whiteSpace=wrap;html=1;rounded=1;flipH=1;labelPosition=right;verticalLabelPosition=middle;align=left;verticalAlign=middle;size=0.5;" vertex="1" parent="1">
          <mxGeometry x="550" y="110" width="70" height="250" as="geometry" />
        </mxCell>
      </root>
    </mxGraphModel>
  </diagram>
</mxfile>
